<?xml version="1.0" standalone="no"?><!DOCTYPE svg PUBLIC "-//W3C//DTD SVG 1.1//EN" "http://www.w3.org/Graphics/SVG/1.1/DTD/svg11.dtd"><svg t="1704204156338" class="icon" viewBox="0 0 1024 1024" version="1.1" xmlns="http://www.w3.org/2000/svg" p-id="5052" xmlns:xlink="http://www.w3.org/1999/xlink" width="200" height="200"><path d="M889.242005 25.004122c-6.314388-10.538201-22.399011-5.97307-22.399011 6.314388v0.426648a405.870074 405.870074 0 0 1-224.118101 362.991968v231.968421a404.547466 404.547466 0 0 0 304.157233-389.102814A404.035488 404.035488 0 0 0 889.242005 25.004122z" fill="#A66EDD" p-id="5053"></path><path d="M43.54069 536.426868c0 258.676575 209.697405 468.416645 468.416645 468.416645 258.71924 0 468.45931-209.74007 468.45931-468.45931 0-258.676575-209.74007-468.416645-468.45931-468.416645s-468.45931 209.74007-468.459309 468.45931z" fill="#A66EDD" p-id="5054"></path><path d="M612.347568 935.683901c-258.71924 0-468.45931-209.697405-468.45931-468.416645a467.179366 467.179366 0 0 1 155.129149-348.144624 468.37398 468.37398 0 0 0-255.476717 417.261571c0 258.761905 209.697405 468.45931 468.416645 468.45931 120.485345 0 230.34716-45.523323 313.330161-120.229357a466.454065 466.454065 0 0 1-212.939928 51.069745z" fill="#7D45B2" p-id="5055"></path><path d="M458.967676 526.10199a51.965705 51.965705 0 1 0 103.974074 0 51.965705 51.965705 0 0 0-103.974074 0zM737.142056 512.022612a51.965705 51.965705 0 1 0 103.93141 0 51.965705 51.965705 0 0 0-103.93141 0z" fill="#FC4C59" p-id="5056"></path><path d="M644.687473 822.280909c-50.301778 0-98.896965-21.545715-137.679253-61.266627a19.071158 19.071158 0 0 1 27.262796-26.622824c33.406525 34.217155 75.218011 51.795046 117.7548 49.576477 41.982146-2.218569 82.044376-24.788239 112.805684-63.570526a19.071158 19.071158 0 0 1 29.865348 23.721619c-37.715668 47.443238-87.633463 75.090017-140.665788 77.905893a173.773658 173.773658 0 0 1-9.300922 0.255988z m-132.644808-225.184721a73.639414 73.639414 0 0 1-66.983708-42.963436 78.929847 78.929847 0 0 1 17.065912-87.761457 2707.080437 2707.080437 0 0 1-8.831609-4.565131c-13.055423-6.741036-23.46563-12.927429-33.619849-18.900499-11.946139-7.082354-24.318926-14.378032-41.896816-23.252306a19.071158 19.071158 0 1 1 17.236572-34.003832c18.64451 9.428917 31.571939 17.065913 44.030055 24.44692 10.111553 5.97307 19.711129 11.604821 31.785263 17.919209l23.593625 12.074133c32.425235 16.5966 60.455997 30.889302 79.100506 46.0353a19.113822 19.113822 0 0 1 5.290433 6.826366 73.639414 73.639414 0 0 1-66.770384 104.144733z m-10.324878-110.373792a31.827928 31.827928 0 0 0-21.161732 18.473851 41.470168 41.470168 0 0 0-0.853295 33.107871 35.497099 35.497099 0 0 0 66.002418-25.556204c-11.007514-8.148973-26.281506-16.724595-43.987391-26.025518z m289.992526 97.446363c-10.580866 0-20.991073-2.261233-30.547984-6.698371a73.084772 73.084772 0 0 1-38.35564-41.214179c-6.826365-18.388521-6.143729-38.398304 2.04791-56.232183a19.028493 19.028493 0 0 1 5.973069-7.423673c20.052448-14.804679 46.504613-30.164001 78.631194-45.693981 48.211204-23.337636 51.411063-25.172222 90.619998-48.211204l5.973069-3.498513a19.071158 19.071158 0 1 1 19.327147 32.851883l-5.97307 3.541177c-34.387815 20.137777-42.024811 24.617579-75.857983 41.12885 7.423672 7.509002 13.226083 16.468606 16.980584 26.324171 7.679661 20.052448 6.95436 42.707447-1.919916 62.119923a73.084772 73.084772 0 0 1-41.214179 38.355639c-8.234303 3.071864-16.937919 4.693126-25.684199 4.693126z m-33.833173-84.049621a35.155781 35.155781 0 0 0 0.639972 22.825659 35.198445 35.198445 0 0 0 18.473851 19.881788c8.532956 3.92516 18.345856 4.266478 27.092137 0.98129a35.198445 35.198445 0 0 0 19.881788-18.473851 43.09143 43.09143 0 0 0 0.938625-32.638558 37.459679 37.459679 0 0 0-19.711129-20.991073c-18.516516 9.72757-34.34515 19.199152-47.315244 28.37208z" fill="#3A2568" p-id="5057"></path><path d="M270.346673 277.792957A347.803305 347.803305 0 0 1 174.009595 37.163585V36.736937c0-10.580866-13.780725-14.506026-19.199152-5.418427a347.461987 347.461987 0 0 0-49.619142 182.818592 349.125914 349.125914 0 0 0 37.928991 155.555797s7.423672 15.572646 15.956629 26.025517l111.269752-117.882794z" fill="#A66EDD" p-id="5058"></path><path d="M954.519122 332.14789c7.253013-30.931967 11.092843-62.589236 11.391497-94.374498A424.173266 424.173266 0 0 0 905.582617 15.191222a30.761308 30.761308 0 0 0-34.985122-13.994048 30.889302 30.889302 0 0 0-22.782993 30.121336v0.426648a384.409689 384.409689 0 0 1-22.868324 131.23687 485.269234 485.269234 0 0 0-312.988843-114.042963c-108.368547 0-213.494571 36.137071-298.653476 102.182154A329.926762 329.926762 0 0 1 193.080752 37.163585V36.736937a29.225376 29.225376 0 0 0-21.58838-28.500074 29.097382 29.097382 0 0 0-33.065206 13.226082 367.429105 367.429105 0 0 0-52.264358 192.844816 365.978503 365.978503 0 0 0 39.976901 164.003424 19.071158 19.071158 0 1 0 33.961167-17.279237 328.092176 328.092176 0 0 1-35.838418-147.10817 329.884097 329.884097 0 0 1 31.998587-145.273583 366.191827 366.191827 0 0 0 100.262239 222.283515 19.071158 19.071158 0 1 0 27.604114-26.281505 330.438739 330.438739 0 0 1-55.037569-77.43658A449.302822 449.302822 0 0 1 512 87.038716c247.797056 0 449.345487 201.591096 449.345487 449.388152 0 247.754391-201.548432 449.345487-449.345487 449.345487S62.569183 784.223923 62.569183 536.426868c0-30.121336 2.986535-60.242673 8.91694-89.468049a19.071158 19.071158 0 1 0-37.37435-7.551666c-6.399717 31.913257-9.642241 64.423821-9.64224 97.019715 0 268.788129 218.699674 487.487803 487.487802 487.487802s487.487803-218.699674 487.487803-487.487802c0-72.914113-16.127288-142.073725-44.926016-204.278978z m-99.323613-141.561748a420.546759 420.546759 0 0 0 29.993342-133.711427 386.457598 386.457598 0 0 1 40.104895 221.387555 490.730326 490.730326 0 0 0-70.098237-87.676128z" fill="#000000" p-id="5059"></path><path d="M534.185687 734.391458a19.071158 19.071158 0 1 0-27.305461 26.622824c38.824952 39.720912 87.420139 61.266627 137.721917 61.266627 3.114529 0 6.229058-0.08533 9.386253-0.255988 52.98966-2.815876 102.907455-30.462655 140.623122-77.905893a19.071158 19.071158 0 0 0-29.865348-23.678954c-30.803973 38.739622-70.823539 61.309292-112.805684 63.527861-42.536788 2.218569-84.348275-15.359322-117.754799-49.576477z m39.2516-248.309033c-18.64451-15.103333-46.675272-29.4387-79.100507-45.992636-7.85032-4.01049-15.743305-8.020979-23.593624-12.116798-12.116798-6.271723-21.673709-11.946139-31.785263-17.919208-12.458116-7.338343-25.385545-14.932674-44.07272-24.404256a19.028493 19.028493 0 1 0-17.193908 34.003832c17.57789 8.874275 29.950677 16.212617 41.896817 23.252306a671.543673 671.543673 0 0 0 42.451458 23.46563 78.929847 78.929847 0 0 0-17.065913 87.761457 73.639414 73.639414 0 0 0 97.446363 36.30773 73.639414 73.639414 0 0 0 36.30773-97.446363 19.113822 19.113822 0 0 0-5.290433-6.911694z m-46.845931 69.714254a35.497099 35.497099 0 0 1-46.973926-17.492561 41.470168 41.470168 0 0 1 0.853296-33.107871 31.827928 31.827928 0 0 1 21.161732-18.473851c17.705885 9.300923 32.937212 17.876544 43.944726 26.025518a35.497099 35.497099 0 0 1-18.985828 43.048765z m398.659725-147.748141a19.071158 19.071158 0 1 0-19.241816-32.851883l-5.97307 3.498513c-39.2516 23.038982-42.451458 24.873568-90.662662 48.211204-32.126581 15.529981-58.578746 30.889302-78.631194 45.693981a19.071158 19.071158 0 0 0-5.97307 7.423673 73.084772 73.084772 0 0 0-2.047909 56.232183c6.826365 18.431186 20.479096 33.065206 38.355639 41.214179a73.298096 73.298096 0 0 0 97.446363-36.265065c8.874275-19.455141 9.556911-42.067475 1.87725-62.162587a75.601994 75.601994 0 0 0-16.980583-26.324171c33.833172-16.511271 41.512833-20.991073 75.857983-41.12885l5.973069-3.541177z m-101.371522 117.285486a35.198445 35.198445 0 0 1-19.881789 18.473851 35.24111 35.24111 0 0 1-27.092137-0.98129 35.198445 35.198445 0 0 1-18.47385-19.881788 35.155781 35.155781 0 0 1-0.639972-22.868324 425.623868 425.623868 0 0 1 47.315243-28.37208 37.417014 37.417014 0 0 1 19.71113 20.991073c4.01049 10.410207 3.626506 22.612335-0.938625 32.638558zM51.732328 376.689923a19.071158 19.071158 0 1 0 38.142316 0 19.071158 19.071158 0 0 0-38.142316 0z" fill="#000000" p-id="5060"></path></svg>